<?xml version="1.0" encoding="UTF-8" standalone="no"?>
<svg xmlns:svg="http://www.w3.org/2000/svg" xmlns="http://www.w3.org/2000/svg">
  <defs>
    
    <symbol
       id="question-circle"
       viewBox="0 0 512 512">
      <path d="M 256,8 C 119.043,8 8,119.083 8,256 8,392.997 119.043,504 256,504 392.957,504 504,392.997 504,256 504,119.083 392.957,8 256,8 Z m 6.6543,82 c 56.366,0 116.53125,43.998 116.53125,102 C 379.18555,269.02 296,270.20597 296,298.66797 V 300 c 0,6.627 -5.373,12 -12,12 h -56 c -6.627,0 -12,-5.373 -12,-12 v -4 c 0,-41.059 31.12834,-57.4712 54.65234,-70.6582 20.171,-11.309 32.53321,-19.00057 32.53321,-33.97657 0,-19.81 -25.26827,-32.95898 -45.69727,-32.95898 -27.19,0 -39.43873,13.13887 -57.30273,35.79687 -4.044,5.13 -11.46102,6.07005 -16.66602,2.12305 l -34.69922,-26.31055 c -5.068,-3.843 -6.25084,-10.97181 -2.71484,-16.25781 C 173.39947,112.95681 208.1573,90 262.6543,90 Z M 256,338 c 25.365,0 46,20.635 46,46 0,25.364 -20.635,46 -46,46 -25.365,0 -46,-20.636 -46,-46 0,-25.365 20.635,-46 46,-46 z" />
    </symbol>
    
    <symbol
       id="code"
       viewBox="0 0 640 512">
      <path d="m 278.9,511.5 -61,-17.7 c -6.4,-1.8 -10,-8.5 -8.2,-14.9 L 346.2,8.7 c 1.8,-6.4 8.5,-10 14.9,-8.2 l 61,17.7 c 6.4,1.8 10,8.5 8.2,14.9 L 293.8,503.3 c -1.9,6.4 -8.5,10.1 -14.9,8.2 z m -114,-112.2 43.5,-46.4 c 4.6,-4.9 4.3,-12.7 -0.8,-17.2 L 117,256 207.6,176.3 c 5.1,-4.5 5.5,-12.3 0.8,-17.2 l -43.5,-46.4 c -4.5,-4.8 -12.1,-5.1 -17,-0.5 L 3.8,247.2 c -5.1,4.7 -5.1,12.8 0,17.5 l 144.1,135.1 c 4.9,4.6 12.5,4.4 17,-0.5 z m 327.2,0.6 144.1,-135.1 c 5.1,-4.7 5.1,-12.8 0,-17.5 L 492.1,112.1 c -4.8,-4.5 -12.4,-4.3 -17,0.5 L 431.6,159 c -4.6,4.9 -4.3,12.7 0.8,17.2 L 523,256 432.4,335.7 c -5.1,4.5 -5.5,12.3 -0.8,17.2 l 43.5,46.4 c 4.5,4.9 12.1,5.1 17,0.6 z" />
    </symbol>
    
    <symbol
       id="sync"
       viewBox="0 0 512 512">
      <path d="M 370.72,133.28 C 339.458,104.008 298.888,87.962 255.848,88 178.39,88.068 111.52,141.178 93.057,214.85 91.713,220.213 86.935,224 81.406,224 H 24.103 C 16.605,224 10.909,217.193 12.296,209.824 33.933,94.924 134.813,8 256,8 322.448,8 382.791,34.136 427.315,76.685 L 463.03,40.97 C 478.149,25.851 504,36.559 504,57.941 V 192 c 0,13.255 -10.745,24 -24,24 H 345.941 c -21.382,0 -32.09,-25.851 -16.971,-40.971 z M 32,296 h 134.059 c 21.382,0 32.09,25.851 16.971,40.971 l -41.75,41.75 c 31.262,29.273 71.835,45.319 114.876,45.28 77.418,-0.07 144.315,-53.144 162.787,-126.849 1.344,-5.363 6.122,-9.15 11.651,-9.15 h 57.304 c 7.498,0 13.194,6.807 11.807,14.176 C 478.067,417.076 377.187,504 256,504 189.552,504 129.209,477.864 84.685,435.315 L 48.97,471.03 C 33.851,486.149 8,475.441 8,454.059 V 320 c 0,-13.255 10.745,-24 24,-24 z" />
    </symbol>
    
  </defs>
</svg>
