<?xml version="1.0" encoding="UTF-8" standalone="no"?>
<svg xmlns:svg="http://www.w3.org/2000/svg" xmlns="http://www.w3.org/2000/svg">
  
  <defs>
    
    <symbol
       id="symbol-video"
       viewBox="0 0 576 512">
      <path
         d="M336.2 64H47.8C21.4 64 0 85.4 0 111.8v288.4C0 426.6 21.4 448 47.8 448h288.4c26.4 0 47.8-21.4 47.8-47.8V111.8c0-26.4-21.4-47.8-47.8-47.8zm189.4 37.7L416 177.3v157.4l109.6 75.5c21.2 14.6 50.4-.3 50.4-25.8V127.5c0-25.4-29.1-40.4-50.4-25.8z"/>
    </symbol>
    
    <symbol
       id="symbol-audio"
       viewBox="0 0 512 512">
      <path d="M470.38 1.51L150.41 96A32 32 0 0 0 128 126.51v261.41A139 139 0 0 0 96 384c-53 0-96 28.66-96 64s43 64 96 64 96-28.66 96-64V214.32l256-75v184.61a138.4 138.4 0 0 0-32-3.93c-53 0-96 28.66-96 64s43 64 96 64 96-28.65 96-64V32a32 32 0 0 0-41.62-30.49z"/>
    </symbol>
    
    <symbol
       id="symbol"
       viewBox="0 0 576 512">
      <path d="M 47.800781 64 C 21.400781 64 -9.4739031e-15 85.400782 0 111.80078 L 0 400.19922 C 0 426.59922 21.400781 448 47.800781 448 L 336.19922 448 C 362.59922 448 384 426.59922 384 400.19922 L 384 111.80078 C 384 85.400782 362.59922 64 336.19922 64 L 47.800781 64 z M 544.60156 95.978516 C 538.19788 95.829102 531.59023 97.592969 525.59961 101.69922 L 416 177.30078 L 416 334.69922 L 525.59961 410.19922 C 546.79961 424.79922 576 409.90039 576 384.40039 L 576 127.5 C 576 109.24375 560.96653 96.360352 544.60156 95.978516 z M 303.82227 128.00781 A 16 16 0 0 1 303.89062 128.00781 A 16 16 0 0 1 320 143.99219 L 320 319.99219 C 320 337.66719 298.5 351.99219 272 351.99219 C 245.5 351.99219 224 337.66219 224 319.99219 C 224 302.32219 245.5 287.99219 272 287.99219 A 69.2 69.2 0 0 1 288 289.95703 L 288 197.65234 L 160 235.15234 L 160 351.99219 C 160 369.66219 138.5 383.99219 112 383.99219 C 85.5 383.99219 64 369.66219 64 351.99219 C 64 334.32219 85.5 319.99219 112 319.99219 A 69.5 69.5 0 0 1 128 321.95312 L 128 191.24805 A 16 16 0 0 1 139.20508 175.99219 L 299.18945 128.74805 A 16 16 0 0 1 303.82227 128.00781 z " />
    </symbol>
    
  </defs>

</svg>
