<?xml version="1.0" encoding="UTF-8" standalone="no"?>
<svg
   viewBox="0 0 640 512"
   width="640"
   height="512"
   version="1.1"
   xmlns="http://www.w3.org/2000/svg"
   xmlns:svg="http://www.w3.org/2000/svg">
  <defs>
    <symbol
       id="symbol"
       viewBox="0 0 640 512">
      <path
          fill-opacity=".5"
          d="m 210.324,358 c -10.11845,0.006 -18.31708,7.10734 -18.324,15.86914 v 31.26172 c 0.007,8.7618 8.20555,15.86315 18.324,15.86914 h 411.361 c 10.11405,-0.0114 18.30809,-7.11114 18.315,-15.86914 V 373.86914 C 639.993,365.11114 631.79906,358.01137 621.685,358 Z"/>
      <path
          d="M 81.559259,32 C 68.305395,32 56.64984,36.57029 46.595184,45.71085 37.454587,55.53701 32.884332,67.0734 32.884332,80.32725 v 351.3455 c 0,13.9394 4.570255,25.47578 13.710852,34.6164 C 55.964296,475.42971 67.506294,480 81.217187,480 h 0.342072 c 13.482379,0 25.018771,-4.57029 34.616401,-13.71085 9.59762,-9.36913 14.4006,-20.90554 14.4006,-34.6164 V 285.99003 c -0.22852,-17.1386 10.85365,-32.44478 33.24811,-45.92714 22.16594,-13.71091 43.41623,-15.65255 63.75406,-5.82642 20.33783,10.05467 30.50595,32.55968 30.50595,67.52245 v 130.59797 c 0,13.48237 4.57025,24.79164 13.71085,33.93226 9.3691,9.14056 20.684,13.71085 33.93786,13.71085 h 1.02621 c 13.48239,0 24.79164,-4.57029 33.93225,-13.71085 9.59765,-9.36913 14.40062,-20.67844 14.40062,-33.93226 L 354.4024,320.95412 c 0,-48.90222 -11.99623,-88.77417 -35.99028,-119.6237 -24.22258,-30.84948 -62.26645,-43.53269 -114.13934,-38.04831 -22.85149,2.51366 -47.07664,15.07766 -72.67031,37.70064 L 130.57626,79.64311 c 0,-13.48237 -4.57026,-24.79164 -13.71086,-33.93226 C 107.03926,36.57029 95.497266,32 82.243399,32 Z M 588.51872,161.56617 c -34.9628,-3e-5 -59.06878,4.68379 -72.32266,14.05292 -6.6269,4.57026 -13.48509,12.22896 -20.56908,22.96918 -15.53896,-23.76558 -31.65127,-35.65383 -48.33284,-35.65383 h -1.71037 c -13.02531,0 -24.34018,4.68942 -33.93786,14.05852 -9.59758,9.59765 -14.39498,21.02051 -14.39498,34.27433 v 217.66329 c 0,13.48236 4.57023,24.9052 13.71085,34.27433 9.36912,9.14061 20.68403,13.71085 33.93785,13.71085 h 1.02624 c 13.48233,0 24.90516,-4.79741 34.27432,-14.39499 9.36907,-9.59765 14.05852,-20.79337 14.05852,-33.59019 V 296.27457 h 0.68414 v -0.68414 c 0.22854,-15.08197 8.56854,-28.45207 25.02159,-40.10635 16.45308,-11.65424 35.19393,-15.76469 56.2173,-12.33695 12.56834,1.82812 20.44852,-7.42596 23.64772,-27.76376 l 6.85823,-31.87985 c 1.14257,-5.48438 -0.003,-10.51446 -3.43191,-15.08475 -3.42772,-4.57027 -8.33865,-6.8526 -14.73706,-6.8526 z"/>
    </symbol>
  </defs>
</svg>
