<?xml version="1.0" encoding="UTF-8" standalone="no"?>
<svg xmlns:svg="http://www.w3.org/2000/svg" xmlns="http://www.w3.org/2000/svg">
  <defs>
    <symbol
       id="symbol"
       viewBox="0 0 640 512">
      <path d="M 16.953125 177.98242 C 12.336895 177.98242 8.2773582 179.57421 4.7753906 182.75781 C 1.5917838 186.18019 3.0435249e-16 190.19822 0 194.81445 L 0 317.18555 C 5.9211895e-16 322.04055 1.5917838 326.05858 4.7753906 329.24219 C 8.0385877 332.42579 12.058574 334.01758 16.833984 334.01758 L 16.953125 334.01758 C 21.648945 334.01758 25.666978 332.42579 29.009766 329.24219 C 32.352553 325.97899 34.025391 321.96095 34.025391 317.18555 L 34.025391 266.44531 C 33.945801 260.47605 37.805632 255.14504 45.605469 250.44922 C 53.325715 245.67381 60.727022 244.99754 67.810547 248.41992 C 74.894072 251.92189 78.435547 259.76021 78.435547 271.9375 L 78.435547 317.42383 C 78.435547 322.11965 80.027331 326.05858 83.210938 329.24219 C 86.474134 332.42579 90.41502 334.01758 95.03125 334.01758 L 95.388672 334.01758 C 100.08449 334.01758 104.02342 332.42579 107.20703 329.24219 C 110.54982 325.97899 112.22266 322.04005 112.22266 317.42383 L 111.98242 278.62305 C 111.98242 261.59075 107.80423 247.70366 99.447266 236.95898 C 91.010708 226.21431 77.760329 221.79686 59.693359 223.70703 C 51.734342 224.58252 43.296911 228.95846 34.382812 236.83789 L 34.025391 194.57617 C 34.025391 189.88035 32.433607 185.94142 29.25 182.75781 C 25.827623 179.57421 21.807636 177.98242 17.191406 177.98242 L 16.953125 177.98242 z M 193.52344 223.10938 C 181.34614 223.10937 172.95021 224.74071 168.33398 228.00391 C 166.02587 229.59571 163.63722 232.26317 161.16992 236.00391 C 155.7578 227.72653 150.14602 223.58594 144.33594 223.58594 L 143.74023 223.58594 C 139.2036 223.58594 135.26272 225.21922 131.91992 228.48242 C 128.57714 231.82521 126.90625 235.8037 126.90625 240.41992 L 126.90625 316.23047 C 126.90625 320.92629 128.49803 324.90477 131.68164 328.16797 C 134.94484 331.35158 138.88573 332.94336 143.50195 332.94336 L 143.85938 332.94336 C 148.55519 332.94336 152.53367 331.27247 155.79688 327.92969 C 159.06007 324.5869 160.69336 320.68752 160.69336 316.23047 L 160.69336 270.02734 L 160.93164 270.02734 L 160.93164 269.78906 C 161.01123 264.53611 163.91599 259.87941 169.64648 255.82031 C 175.37697 251.76121 181.90426 250.32958 189.22656 251.52344 C 193.60402 252.16016 196.34863 248.93704 197.46289 241.85352 L 199.85156 230.75 C 200.24951 228.83983 199.8501 227.08789 198.65625 225.49609 C 197.4624 223.90429 195.75196 223.10938 193.52344 223.10938 z M 267.93359 224 C 259.17179 224.006 252.0724 231.10734 252.06641 239.86914 L 252.06641 271.13086 C 252.07241 279.89266 259.17179 286.99401 267.93359 287 L 624.14062 287 C 632.89861 286.9886 639.99402 279.88886 640 271.13086 L 640 239.86914 C 639.994 231.11114 632.89862 224.01137 624.14062 224 L 267.93359 224 z " />
    </symbol>
  </defs>
</svg>
