<?xml version="1.0" encoding="UTF-8" standalone="no"?>
<svg xmlns:svg="http://www.w3.org/2000/svg" xmlns="http://www.w3.org/2000/svg">
  <defs>
    <symbol
       id="symbol"
       viewBox="0 0 640 512">
      <path d="M 336,416 H 324.83 L 334.09,388.23 267,336.4 240.49,416 H 208 a 16,16 0 0 0 -16,16 v 32 a 16,16 0 0 0 16,16 h 128 a 16,16 0 0 0 16,-16 V 432 A 16,16 0 0 0 336,416 Z M 633.82,458.1 377,259.59 426.17,112 H 544 v 32 a 16,16 0 0 0 16,16 h 32 a 16,16 0 0 0 16,-16 V 48 A 16,16 0 0 0 592,32 H 176 A 16,16 0 0 0 160,48 V 91.9 L 45.46,3.38 A 16,16 0 0 0 23,6.19 L 3.37,31.46 A 16,16 0 0 0 6.18,53.91 L 594.54,508.63 A 16,16 0 0 0 617,505.82 l 19.64,-25.27 A 16,16 0 0 0 633.82,458.1 Z M 309.91,207.76 224,141.36 V 112 h 117.83 z"/>
    </symbol>
  </defs>
</svg>
